<svg xmlns="http://www.w3.org/2000/svg" width="21.333" height="26.601" viewBox="0 0 21.333 26.601"><g transform="translate(-3666.333 -2236.666)"><path d="M3677,2263.267a5.334,5.334,0,0,1-5.147-3.934h-4.186a1.334,1.334,0,0,1-1.334-1.334v-2.666a4,4,0,0,1,2.666-3.76v-4.24a8,8,0,0,1,6.667-7.881V2238a1.333,1.333,0,1,1,2.666,0v1.453a8,8,0,0,1,6.667,7.881v4.24a4,4,0,0,1,2.666,3.76V2258a1.324,1.324,0,0,1-.391.943,1.341,1.341,0,0,1-.942.391h-4.187a5.332,5.332,0,0,1-5.147,3.934Zm-2.294-3.934h0a2.644,2.644,0,0,0,4.587,0h-4.587Zm-4.373-5.333a1.332,1.332,0,0,0-1.334,1.333v1.334h16v-1.334a1.328,1.328,0,0,0-.391-.943,1.343,1.343,0,0,0-.943-.39Zm6.666-12a5.332,5.332,0,0,0-5.333,5.334v4h10.667v-4A5.336,5.336,0,0,0,3677,2242Z"/></g></svg>