<svg xmlns="http://www.w3.org/2000/svg" width="34.5" height="34.5" viewBox="0 0 34.5 34.5"><defs><style>.a{fill:#fff;}</style></defs><path class="a" d="M34.5,8.086v9.568a1.348,1.348,0,0,1-2.7,0V8.086a2.7,2.7,0,0,0-2.7-2.7H27.357V6.738a1.348,1.348,0,1,1-2.7,0V5.391H18.53V6.738a1.348,1.348,0,1,1-2.7,0V5.391H9.771V6.738a1.348,1.348,0,1,1-2.7,0V5.391H5.391a2.7,2.7,0,0,0-2.7,2.7V29.109a2.7,2.7,0,0,0,2.7,2.7h11.32a1.348,1.348,0,0,1,0,2.7H5.391A5.4,5.4,0,0,1,0,29.109V8.086A5.4,5.4,0,0,1,5.391,2.7H7.075V1.348a1.348,1.348,0,1,1,2.7,0V2.7h6.064V1.348a1.348,1.348,0,0,1,2.7,0V2.7h6.132V1.348a1.348,1.348,0,1,1,2.7,0V2.7h1.752A5.4,5.4,0,0,1,34.5,8.086ZM9.771,14.15A1.348,1.348,0,1,0,8.423,15.5,1.348,1.348,0,0,0,9.771,14.15ZM20.147,15.5A1.348,1.348,0,1,0,18.8,14.15,1.348,1.348,0,0,0,20.147,15.5Zm5.862,0a1.348,1.348,0,1,0-1.348-1.348A1.348,1.348,0,0,0,26.01,15.5ZM9.771,20.013A1.348,1.348,0,1,0,8.423,21.36,1.348,1.348,0,0,0,9.771,20.013ZM8.423,24.527a1.348,1.348,0,1,0,1.348,1.348A1.348,1.348,0,0,0,8.423,24.527Zm7.21-10.377A1.348,1.348,0,1,0,14.285,15.5,1.348,1.348,0,0,0,15.633,14.15Zm0,5.862a1.348,1.348,0,1,0-1.348,1.348A1.348,1.348,0,0,0,15.633,20.013Zm-1.348,4.515a1.348,1.348,0,1,0,1.348,1.348A1.348,1.348,0,0,0,14.285,24.527ZM18.8,20.013a1.348,1.348,0,1,0,1.348-1.348A1.348,1.348,0,0,0,18.8,20.013Zm5.862,0a1.348,1.348,0,1,0,1.348-1.348A1.348,1.348,0,0,0,24.662,20.013Zm9.275,1.936a1.347,1.347,0,0,0-1.88.311l-6.643,9.279a.77.77,0,0,1-1.108.058l-4.293-4.19a1.348,1.348,0,1,0-1.883,1.929l4.3,4.2.012.012a3.476,3.476,0,0,0,2.391.955c.076,0,.152,0,.229-.008a3.474,3.474,0,0,0,2.471-1.287c.016-.019.031-.039.045-.059l6.67-9.316A1.348,1.348,0,0,0,33.937,21.949Zm0,0"/></svg>