<svg xmlns="http://www.w3.org/2000/svg" width="33.5" height="33.5" viewBox="0 0 33.5 33.5"><defs><style>.a{fill:#fff;}</style></defs><g transform="translate(15.452 7.772)"><path class="a" d="M243.435,130.715l-4.671-3.5v-7.136a1.3,1.3,0,0,0-2.595,0v7.785a1.3,1.3,0,0,0,.519,1.038l5.19,3.892a1.3,1.3,0,0,0,1.557-2.076Z" transform="translate(-236.169 -118.779)"/></g><path class="a" d="M16.75,0A16.75,16.75,0,1,0,33.5,16.75,16.768,16.768,0,0,0,16.75,0Zm0,30.905A14.155,14.155,0,1,1,30.905,16.75,14.172,14.172,0,0,1,16.75,30.905Z"/></svg>