<svg xmlns="http://www.w3.org/2000/svg" width="18.667" height="23.333" viewBox="0 0 18.667 23.333"><defs><style>.a{fill:#fff;}</style></defs><g transform="translate(-1661.666 -170.333)"><path class="a" d="M1675.666,193.667h-12.832a1.168,1.168,0,0,1-1.167-1.166v-21a1.168,1.168,0,0,1,1.167-1.166h9.333a1.153,1.153,0,0,1,.548.137,1.169,1.169,0,0,1,.257.185l.019.02,7,7,.02.02a1.2,1.2,0,0,1,.185.253,1.183,1.183,0,0,1,.138.552V189A4.672,4.672,0,0,1,1675.666,193.667Zm-11.666-21v18.666h11.666A2.336,2.336,0,0,0,1678,189v-9.334h-5.833A1.168,1.168,0,0,1,1671,178.5v-5.833h-7Zm9.333,1.65v3.017h3.017l-3.017-3.017Zm0,14.684h-4.667a1.167,1.167,0,1,1,0-2.334h4.667a1.167,1.167,0,1,1,0,2.334Zm1.167-4.667h-7a1.167,1.167,0,0,1,0-2.334h7a1.167,1.167,0,0,1,0,2.334Z"/></g></svg>