<svg xmlns="http://www.w3.org/2000/svg" width="33.694" height="33.638" viewBox="0 0 33.694 33.638"><defs><style>.a{fill:#fff;stroke:#fff;stroke-width:0.4px;}</style></defs><g transform="translate(0.241 0.2)"><path class="a" d="M37.3,7.187,35.369,5.259l1.962-2.13A.975.975,0,0,0,36.615,1.5H29.04V.974a.974.974,0,1,0-1.947,0V12.334H23.578a.974.974,0,0,0-.974.974v6.64h-8a.974.974,0,0,0-.974.974V25.4h-8a.974.974,0,0,0-.974.974v5.889a.974.974,0,0,0,.974.974H32.719a.974.974,0,0,0,.974-.974V13.308a.974.974,0,0,0-.974-.974H29.04V8.85h7.575A.975.975,0,0,0,37.3,7.187ZM6.6,27.348h7.028V31.29H6.6ZM15.577,21.9H22.6V31.29H15.577V21.9ZM31.745,31.29H24.552V14.282h7.193ZM33.331,5.977l.928.925H29.039V3.443h5.354L33.3,4.628A.974.974,0,0,0,33.331,5.977Z" transform="translate(-4.35)"/><path class="a" d="M1.355,74.114a28.727,28.727,0,0,0,9.16-6.181,28.774,28.774,0,0,0,5.311-7.293l.7,1.412a.974.974,0,1,0,1.745-.865l-1.6-3.226a.975.975,0,0,0-1.073-.52l-3.463.729a.974.974,0,0,0,.2,1.927,12.507,12.507,0,0,0,1.761-.349,26.835,26.835,0,0,1-4.957,6.809A26.788,26.788,0,0,1,.6,72.32a.974.974,0,0,0,.758,1.794Z" transform="translate(0 -53.692)"/></g></svg>