<svg xmlns="http://www.w3.org/2000/svg" width="32.039" height="32.039" viewBox="0 0 32.039 32.039"><defs><style>.a{fill:#fff;stroke:#feffff;stroke-width:0.5px;}</style></defs><g transform="translate(0.25 0.25)"><path class="a" d="M8.867,249.736a4.883,4.883,0,1,0-5.988,0A5.866,5.866,0,0,0,0,254.79v1.979a.924.924,0,0,0,.924.924h9.9a.924.924,0,0,0,.924-.924V254.79A5.866,5.866,0,0,0,8.867,249.736Zm-6.029-3.853a3.035,3.035,0,1,1,3.035,3.035A3.038,3.038,0,0,1,2.838,245.883ZM9.9,255.845H1.848V254.79a4.024,4.024,0,1,1,8.049,0v1.055Zm0,0" transform="translate(0 -226.154)"/><path class="a" d="M208.57,0H196.694A3.891,3.891,0,0,0,192.8,3.893V21.708a.925.925,0,0,0,1.478.739l3.712-2.784H208.57a3.891,3.891,0,0,0,3.893-3.893V3.893A3.891,3.891,0,0,0,208.57,0Zm2.045,15.77a2.043,2.043,0,0,1-2.045,2.045H197.683a.925.925,0,0,0-.554.185l-2.48,1.86V3.893a2.043,2.043,0,0,1,2.045-2.045H208.57a2.043,2.043,0,0,1,2.045,2.045Zm0,0" transform="translate(-180.924)"/><path class="a" d="M267.888,80.332h-9.9a.924.924,0,1,0,0,1.848h9.9a.924.924,0,0,0,0-1.848Zm0,0" transform="translate(-241.231 -75.384)"/><path class="a" d="M267.888,144.6h-9.9a.924.924,0,1,0,0,1.848h9.9a.924.924,0,0,0,0-1.848Zm0,0" transform="translate(-241.231 -135.694)"/><path class="a" d="M262.939,208.867H257.99a.924.924,0,1,0,0,1.848h4.948a.924.924,0,1,0,0-1.848Zm0,0" transform="translate(-241.231 -196.001)"/></g></svg>