<svg xmlns="http://www.w3.org/2000/svg" width="16" height="20" viewBox="0 0 16 20"><path d="M8,20a1,1,0,0,1-.65-.24,32.713,32.713,0,0,1-3.788-3.952C1.2,12.876,0,10.249,0,8A8,8,0,0,1,13.657,2.344,7.943,7.943,0,0,1,16,8c0,2.807-1.927,5.8-3.544,7.808A30.264,30.264,0,0,1,8.651,19.76,1,1,0,0,1,8,20ZM8,2A6,6,0,0,0,2,8c0,1.469.741,3.261,2.2,5.327A30.383,30.383,0,0,0,8,17.65a29.815,29.815,0,0,0,3.8-4.318C13.26,11.264,14,9.47,14,8a5.957,5.957,0,0,0-1.758-4.243A6.038,6.038,0,0,0,8,2ZM8,12A4,4,0,0,1,5.779,4.675a4,4,0,0,1,5.051.5,4,4,0,0,1-1.3,6.524A3.982,3.982,0,0,1,8,12ZM8,6a1.994,1.994,0,0,0-1.413.586A1.98,1.98,0,0,0,6.039,7.61,2,2,0,1,0,8,6Z"/></svg>