<svg xmlns="http://www.w3.org/2000/svg" width="198.068" height="39.688" viewBox="0 0 198.068 39.688"><defs><style>.a,.c{fill:#fff;}.b,.c{isolation:isolate;}.c{font-size:1px;font-family:ArialMT, Arial;}</style></defs><g transform="translate(0 0)"><g transform="translate(0 4.117)"><path class="a" d="M84.2,35.434c-6.373,0-11.461-4.594-11.461-12,0-6.965,4.344-12,11.461-12a11.541,11.541,0,0,1,8.151,3.359l4.052-4.051A17.012,17.012,0,0,0,84.2,5.645C74.075,5.645,66.862,13,66.862,23.43c0,10.868,7.8,17.785,17.341,17.785a17.172,17.172,0,0,0,12.2-5.04l-4.052-4.1A11.541,11.541,0,0,1,84.2,35.434Zm45.3-29.3h-7.213L108.112,23.577V6.138h-5.783V40.716h5.78V31.229l3.26-3.656L122.04,40.714H129.6L115.225,23.725,129.5,6.138Zm18.229,0H136.222v5.78l5.484,8.645h-5.484V40.72H142V26.294h5.73s11.51,0,11.51-10.078S147.733,6.138,147.733,6.138Zm.74,14.376-5.385-8.6h4.644s5.78,0,5.78,4.3C153.512,19.575,150,20.316,148.473,20.514Zm16.7,20.205h5.781V6.141H165.17Zm33-34.578H177.916v5.286h7.262V40.72h5.73v-29.3h7.264V6.138Z" transform="translate(-7.581 -5.644)"/><path class="a" d="M46.5,31.333A12.844,12.844,0,1,0,33.654,18.489h0A12.882,12.882,0,0,0,46.5,31.333Zm0-19.959a7.114,7.114,0,1,1-7.114,7.114h0a7.084,7.084,0,0,1,7.055-7.113Zm11.26,23.614H34.939v5.73H57.763v-5.73Z" transform="translate(-3.816 -5.644)"/><path class="a" d="M27.171,6.2H19.958L5.781,23.641V6.2H0V40.78H5.781V31.293l3.261-3.656L19.713,40.779h7.558L12.893,23.789,27.168,6.2Z" transform="translate(0 -5.707)"/></g><g class="b" transform="translate(196.068)"><text class="c" transform="translate(0 1)"><tspan x="0" y="0">TM</tspan></text></g></g></svg>