<svg xmlns="http://www.w3.org/2000/svg" width="40" height="40" viewBox="0 0 40 40"><defs><style>.a{fill:#0abeff;}.b{fill:#fcfcfc;}</style></defs><path class="a" d="M16,0h8A16,16,0,0,1,40,16v8A16,16,0,0,1,24,40H16A16,16,0,0,1,0,24V16A16,16,0,0,1,16,0Z"/><g transform="translate(10 12)"><path class="b" d="M17,16H3a3,3,0,0,1-3-3V3A3,3,0,0,1,3,0H17a3,3,0,0,1,3,3V13a3,3,0,0,1-3,3ZM2,3.3H2V13a1,1,0,0,0,1,1H17a1,1,0,0,0,1-1V3.3L11.835,8.372a3.087,3.087,0,0,1-1.848.621H9.978A2.988,2.988,0,0,1,8.2,8.4L2,3.3ZM3.572,2,9.434,6.827A.99.99,0,0,0,10,7h.025a.977.977,0,0,0,.578-.2L16.426,2Z"/></g></svg>