<svg xmlns="http://www.w3.org/2000/svg" width="40" height="40" viewBox="0 0 40 40"><defs><style>.a{fill:#0abeff;}.b{fill:#fcfcfc;}</style></defs><path class="a" d="M16,0h8A16,16,0,0,1,40,16v8A16,16,0,0,1,24,40H16A16,16,0,0,1,0,24V16A16,16,0,0,1,16,0Z"/><g transform="translate(9.981 10.04)"><path class="b" d="M16.931,19.87h-.384a19,19,0,0,1-11.082-5.4A18.962,18.962,0,0,1,1.825,9.4,18.964,18.964,0,0,1,.028,3.41a2.989,2.989,0,0,1,.1-1.274A3.021,3.021,0,0,1,.748,1.018,3,3,0,0,1,3,0H6.071A3,3,0,0,1,9.028,2.49c.031.235.071.463.121.679a10.271,10.271,0,0,0,.39,1.311,2,2,0,0,1-1,2.479l-.42.281a12.22,12.22,0,0,0,2,2.659,12.169,12.169,0,0,0,2.66,2L13,11.45a2,2,0,0,1,1.05-.975,1.978,1.978,0,0,1,.747-.146,2,2,0,0,1,.684.12,9.533,9.533,0,0,0,1.31.39l.14.033a2.317,2.317,0,0,0,.531.087,3,3,0,0,1,2.469,2.9v3a3.007,3.007,0,0,1-1,2.251A3,3,0,0,1,16.931,19.87ZM3.087,2.021a1,1,0,0,0-.749.339,1.085,1.085,0,0,0-.25.821,17.072,17.072,0,0,0,4.823,9.91,17.08,17.08,0,0,0,9.887,4.87,1.078,1.078,0,0,0,.125.007,1.06,1.06,0,0,0,.693-.258.986.986,0,0,0,.251-.338,1.008,1.008,0,0,0,.089-.411l-.02-3.12a1,1,0,0,0-.79-1c-.28-.041-.544-.091-.81-.15a13.582,13.582,0,0,1-1.579-.46l-.62,1.4a1,1,0,0,1-.233.318,1.044,1.044,0,0,1-1.1.2,14.517,14.517,0,0,1-7-7,1,1,0,0,1-.031-.767,1.025,1.025,0,0,1,.2-.334A.993.993,0,0,1,6.3,5.821l1.4-.65A10.97,10.97,0,0,1,7.238,3.62c-.058-.257-.109-.529-.15-.81a1,1,0,0,0-.976-.79H3.087Z"/></g></svg>