<svg xmlns="http://www.w3.org/2000/svg" width="26.667" height="26.667" viewBox="0 0 26.667 26.667"><g transform="translate(-3743.666 -2236.667)"><path d="M3759.018,2263.333h-4a1.331,1.331,0,0,1-1.267-.906l-.84-2.52-2.373,1.187a1.342,1.342,0,0,1-.589.137,1.311,1.311,0,0,1-.218-.018,1.339,1.339,0,0,1-.726-.373l-2.841-2.84a1.332,1.332,0,0,1-.254-1.521l1.187-2.373-2.52-.84a1.333,1.333,0,0,1-.906-1.266v-4a1.332,1.332,0,0,1,.906-1.254l2.52-.84-1.187-2.373a1.33,1.33,0,0,1,.254-1.533l2.841-2.841a1.328,1.328,0,0,1,.937-.387,1.345,1.345,0,0,1,.583.134l2.373,1.187.84-2.52a1.333,1.333,0,0,1,1.261-.906H3759a1.332,1.332,0,0,1,1.253.906l.84,2.52,2.373-1.187a1.343,1.343,0,0,1,.59-.137,1.32,1.32,0,0,1,.219.018,1.338,1.338,0,0,1,.725.373l2.84,2.841a1.33,1.33,0,0,1,.254,1.52l-1.187,2.373,2.521.84a1.336,1.336,0,0,1,.906,1.267v4a1.332,1.332,0,0,1-.906,1.253l-2.521.84,1.187,2.373a1.333,1.333,0,0,1-.254,1.534l-2.84,2.84a1.336,1.336,0,0,1-1.506.254l-2.373-1.187-.839,2.52a1.333,1.333,0,0,1-1.262.906Zm-6.127-6.111a2.654,2.654,0,0,1,1.014.2,2.693,2.693,0,0,1,.941.654,2.646,2.646,0,0,1,.58.99l.533,1.6h2.121l.534-1.6a2.68,2.68,0,0,1,.577-.975,2.673,2.673,0,0,1,1.951-.852l.094,0a2.668,2.668,0,0,1,1.1.279l1.48.8,1.467-1.467-.76-1.521a2.642,2.642,0,0,1-.294-1.108,2.664,2.664,0,0,1,.852-2.071,2.658,2.658,0,0,1,.99-.58l1.6-.534v-2.12l-1.6-.534a2.638,2.638,0,0,1-.976-.577,2.667,2.667,0,0,1-.572-3.142l.8-1.481-1.467-1.467-1.521.761a2.7,2.7,0,0,1-1.108.294l-.117,0a2.665,2.665,0,0,1-2.535-1.844l-.534-1.6h-2.081l-.533,1.6a2.658,2.658,0,0,1-.58.99,2.7,2.7,0,0,1-.941.654,2.658,2.658,0,0,1-1.013.2l-.117,0a2.7,2.7,0,0,1-1.109-.294l-1.479-.761-1.468,1.467.76,1.481a2.666,2.666,0,0,1-1.547,3.759l-1.6.534v2.08l1.6.534a2.665,2.665,0,0,1,1.547,3.759l-.8,1.481,1.467,1.466,1.52-.759a2.668,2.668,0,0,1,1.109-.3Zm4.109-1.89a5.382,5.382,0,0,1-1.041-.1,5.336,5.336,0,1,1,1.041.1Zm0-8a2.666,2.666,0,1,0,1.02.2A2.667,2.667,0,0,0,3757,2247.333Z"/></g></svg>