<svg xmlns="http://www.w3.org/2000/svg" xmlns:xlink="http://www.w3.org/1999/xlink" width="333.396" height="180.512" viewBox="0 0 333.396 180.512">
  <defs>
    <linearGradient id="linear-gradient" x1="-0.088" y1="0.5" x2="2.14" y2="0.5" gradientUnits="objectBoundingBox">
      <stop offset="0" stop-color="#fff"/>
      <stop offset="1" stop-color="#3aa0ff"/>
    </linearGradient>
    <linearGradient id="linear-gradient-2" x1="-0.108" y1="1.057" x2="1" y2="-0.133" xlink:href="#linear-gradient"/>
  </defs>
  <g id="Group_5838" data-name="Group 5838" transform="translate(0 -0.19)">
    <path id="Path_119" data-name="Path 119" d="M84.747,8H60.781a17.157,17.157,0,0,0-15.072,8.154A17.977,17.977,0,0,0,42.5,26.531a18.03,18.03,0,0,0,4.447,12.107,17.892,17.892,0,0,0,13.342,6.424H84.747a14.4,14.4,0,0,1,10.871,4.695,14.5,14.5,0,0,1,4.447,10.624A15.2,15.2,0,0,1,95.372,71.5,14.788,14.788,0,0,1,84.5,75.946H82.771A18.559,18.559,0,0,0,64.24,94.477a18.558,18.558,0,0,0,18.531,18.531h16.8a16.051,16.051,0,0,1,15.565,15.565A14.5,14.5,0,0,1,110.69,139.2a15.419,15.419,0,0,1-10.624,4.7H90.924a17.632,17.632,0,0,0-12.6,5.682,17.911,17.911,0,0,0-4.942,12.848,18.286,18.286,0,0,0,5.189,13.1,17.569,17.569,0,0,0,12.848,5.436h8.894a50.251,50.251,0,0,0,36.568-15.566A50.2,50.2,0,0,0,152.2,128.573a49.655,49.655,0,0,0-5.93-23.719,51.389,51.389,0,0,0-15.812-18.778,51.545,51.545,0,0,0,6.671-25.7,50.2,50.2,0,0,0-15.318-36.815A50.085,50.085,0,0,0,84.747,8ZM45.462,8H18.284A18.075,18.075,0,0,0,4.447,14.671,17.116,17.116,0,0,0,0,26.531V162.423a18.149,18.149,0,0,0,18.531,18.531H76.1a23.692,23.692,0,0,1-8.4-18.531,23.223,23.223,0,0,1,8.4-18.531H37.062V26.531a23.883,23.883,0,0,1,2.965-11.613A28.061,28.061,0,0,1,45.462,8Z" transform="translate(0 -0.536)" fill="url(#linear-gradient)"/>
    <path id="Path_120" data-name="Path 120" d="M317.219,8.531A19.265,19.265,0,0,0,306.1,14.708v.247L275.71,50.287a22.326,22.326,0,0,0-1.73,2.471,16.909,16.909,0,0,0-2.718,9.389v.494a17.8,17.8,0,0,0,6.424,13.836,18.978,18.978,0,0,0,12.354,4.447h.741a16.928,16.928,0,0,0,12.106-5.436q.495-.494,1.483-1.729l29.9-34.838a17.709,17.709,0,0,0,4.447-11.86v-.494a18.136,18.136,0,0,0-6.424-13.589l-.248-.247a18.325,18.325,0,0,0-11.859-4.2Zm-113.161,0a17.709,17.709,0,0,0-11.86,4.447.218.218,0,0,0-.247.247,17.614,17.614,0,0,0-6.424,13.589v.247a18.027,18.027,0,0,0,4.447,12.107L237.66,94.76l-37.309,43.485a26.37,26.37,0,0,1,3.707-.247,22.765,22.765,0,0,1,17.048,7.165,23.568,23.568,0,0,1,7.165,17.3v.247l33.849-39.533,43.733,51.145.247.495a17.517,17.517,0,0,0,11.859,6.177h2.224a17.709,17.709,0,0,0,11.859-4.447,18.086,18.086,0,0,0,6.671-12.6V162.46a17.711,17.711,0,0,0-4.447-11.86l-.495-.494L218.141,15.2v-.247a17.619,17.619,0,0,0-11.119-6.177A18,18,0,0,0,204.058,8.531Zm0,135.152a17.787,17.787,0,0,0-6.425,1.235,18.986,18.986,0,0,0-12.106,17.543v1.235a18.031,18.031,0,0,0,6.424,12.848,21.525,21.525,0,0,0,5.93,3.459,19.409,19.409,0,0,0,6.177.988,17.667,17.667,0,0,0,13.589-5.93,18.161,18.161,0,0,0,4.942-12.6,18.892,18.892,0,0,0-18.531-18.778Z" transform="translate(-12.73 -0.572)" fill="url(#linear-gradient-2)"/>
    <circle id="Ellipse_18" data-name="Ellipse 18" cx="19.093" cy="19.093" r="19.093" transform="translate(172.306 142.515)" fill="#fff"/>
    <rect id="Rectangle_18" data-name="Rectangle 18" width="37.007" height="86.078" rx="18.504" transform="translate(305.262 0.19) rotate(40.516)" fill="#fff"/>
  </g>
</svg>
