<svg xmlns="http://www.w3.org/2000/svg" viewBox="0 0 91.77 162.06"><g id="Layer_2" data-name="Layer 2"><g id="Layer_1-2" data-name="Layer 1"><g id="Group_3121" data-name="Group 3121"><g id="cell-phone"><path id="Path_15824" data-name="Path 15824" d="M80,0H11.79A11.8,11.8,0,0,0,0,11.8V150.26a11.8,11.8,0,0,0,11.78,11.8H80a11.81,11.81,0,0,0,11.79-11.8V11.8A11.8,11.8,0,0,0,80,0ZM29.06,7.17H62.72c.85,0,1.54,1.27,1.54,2.84s-.69,2.84-1.54,2.84H29.06c-.86,0-1.53-1.27-1.53-2.84S28.2,7.17,29.06,7.17ZM45.89,150.4a7.53,7.53,0,1,1,7.52-7.54h0A7.54,7.54,0,0,1,45.89,150.4Zm37.05-25.8H8.84V19.92h74.1Z" style="fill:#fff"/></g><rect id="Rectangle_2175" data-name="Rectangle 2175" x="16.01" y="31.04" width="23.87" height="23.87" rx="1" style="fill:#fff"/><rect id="Rectangle_2177" data-name="Rectangle 2177" x="16.01" y="60.64" width="23.87" height="22.91" rx="1" style="fill:#fff"/><rect id="Rectangle_2179" data-name="Rectangle 2179" x="16.01" y="90.24" width="23.87" height="22.91" rx="1" style="fill:#fff"/><rect id="Rectangle_2176" data-name="Rectangle 2176" x="51.34" y="31.04" width="23.87" height="23.87" rx="1" style="fill:#fff"/><rect id="Rectangle_2178" data-name="Rectangle 2178" x="51.34" y="60.64" width="23.87" height="22.91" rx="1" style="fill:#fff"/><rect id="Rectangle_2180" data-name="Rectangle 2180" x="51.34" y="90.24" width="23.87" height="22.91" rx="1" style="fill:#fff"/></g></g></g></svg>