<svg xmlns="http://www.w3.org/2000/svg" width="21.96" height="17.223" viewBox="0 0 21.96 17.223"><defs><style>.a{fill:#54bcf9;stroke:#53bcf9;stroke-width:0.5px;}</style></defs><g transform="translate(0.25 0.25)"><path class="a" d="M10.73,8.72a.5.5,0,0,1-.177-.032L.311,4.805a.475.475,0,0,1,0-.891L10.553.032a.5.5,0,0,1,.353,0L21.148,3.914a.474.474,0,0,1,0,.891L10.906,8.688A.5.5,0,0,1,10.73,8.72Zm0-7.73L1.839,4.36,10.73,7.73l8.89-3.37Z" transform="translate(0 0)"/><path class="a" d="M10.73,6.779a.5.5,0,0,1-.176-.032L.312,2.865a.475.475,0,0,1,0-.892L5.433.032a.491.491,0,0,1,.631.273.475.475,0,0,1-.279.618l-3.946,1.5,8.891,3.37,8.891-3.37L15.675.923A.475.475,0,0,1,15.4.305a.492.492,0,0,1,.631-.273l5.121,1.941a.475.475,0,0,1,0,.892L10.906,6.747a.5.5,0,0,1-.176.032" transform="translate(0 6.122)"/><path class="a" d="M10.73,6.69a.5.5,0,0,1-.176-.032L.312,2.776a.475.475,0,0,1,0-.892L5.189.032A.491.491,0,0,1,5.82.306a.476.476,0,0,1-.279.618l-3.7,1.405L10.73,5.7l8.891-3.37L15.918.924a.476.476,0,0,1-.279-.618.491.491,0,0,1,.631-.273l4.877,1.851a.475.475,0,0,1,0,.892L10.906,6.658a.5.5,0,0,1-.176.032" transform="translate(0 10.033)"/></g></svg>