<svg xmlns="http://www.w3.org/2000/svg" width="17.104" height="20.913" viewBox="0 0 17.104 20.913"><defs><style>.a{fill:#6e768e;stroke:#6e768e;stroke-width:0.5px;}</style></defs><g transform="translate(0.25 0.25)"><path class="a" d="M15.293,20.413H1.311A1.322,1.322,0,0,1,0,19.082V1.331A1.323,1.323,0,0,1,1.311,0h9.613a.431.431,0,0,1,.309.13l5.243,5.325a.445.445,0,0,1,.128.314V19.082A1.322,1.322,0,0,1,15.293,20.413ZM1.311.887a.441.441,0,0,0-.436.444V19.082a.44.44,0,0,0,.436.443H15.293a.44.44,0,0,0,.436-.443V5.953L10.742.887Z" transform="translate(0 0)"/><path class="a" d="M5.68,5.325H.437A.441.441,0,0,1,0,4.881V0H.874V4.438H5.68Z" transform="translate(10.487 0.888)"/><path class="a" d="M5.68.888H.437A.441.441,0,0,1,0,.444.441.441,0,0,1,.437,0H5.68a.441.441,0,0,1,.437.444A.441.441,0,0,1,5.68.888" transform="translate(2.622 6.657)"/><path class="a" d="M10.923.888H.437A.441.441,0,0,1,0,.444.441.441,0,0,1,.437,0H10.923a.441.441,0,0,1,.437.444.441.441,0,0,1-.437.444" transform="translate(2.622 9.319)"/><path class="a" d="M10.923.888H.437A.441.441,0,0,1,0,.444.441.441,0,0,1,.437,0H10.923a.441.441,0,0,1,.437.444.441.441,0,0,1-.437.444" transform="translate(2.622 11.982)"/><path class="a" d="M10.923.888H.437A.441.441,0,0,1,0,.444.441.441,0,0,1,.437,0H10.923a.441.441,0,0,1,.437.444.441.441,0,0,1-.437.444" transform="translate(2.622 14.644)"/></g></svg>