<svg xmlns="http://www.w3.org/2000/svg" width="77" height="77" viewBox="0 0 77 77">
  <g id="Group_6261" data-name="Group 6261" transform="translate(-149 -313)">
    <path id="Path_21481" data-name="Path 21481" d="M38.5,0A38.5,38.5,0,1,1,0,38.5,38.5,38.5,0,0,1,38.5,0Z" transform="translate(149 313)" fill="#fdb81d" opacity="0.111"/>
    <path id="Path_21480" data-name="Path 21480" d="M31.5,0A31.5,31.5,0,1,1,0,31.5,31.565,31.565,0,0,1,31.5,0Z" transform="translate(156 320)" fill="#fdb81d"/>
    <g id="warning" transform="translate(173.498 318.131)">
      <g id="Group_7013" data-name="Group 7013" transform="translate(0 20.488)">
        <path id="Path_21483" data-name="Path 21483" d="M27.788,43.678,15.535,21.392a1.753,1.753,0,0,0-3.067,0L.215,43.678a1.718,1.718,0,0,0,.028,1.715,1.732,1.732,0,0,0,1.507.858h24.5a1.74,1.74,0,0,0,1.535-2.573ZM13.725,29.472A1.692,1.692,0,0,1,14,29.449a1.675,1.675,0,0,1,1.654,1.389,1.635,1.635,0,0,1,0,.548l-1.1,6.561A.559.559,0,0,1,14,38.41a.523.523,0,0,1-.093-.008.557.557,0,0,1-.46-.456l-1.1-6.561A1.663,1.663,0,0,1,13.725,29.472ZM14,42.89a1.68,1.68,0,1,1,1.68-1.68A1.682,1.682,0,0,1,14,42.89Z" transform="translate(0 -20.488)" fill="#fff"/>
      </g>
    </g>
  </g>
</svg>
