<svg xmlns="http://www.w3.org/2000/svg" viewBox="0 0 23.62 26.54"><g id="Layer_2" data-name="Layer 2"><g id="Layer_1-2" data-name="Layer 1"><g id="Group_3083" data-name="Group 3083"><path id="Path_15822" data-name="Path 15822" d="M19.3,17.15a5.76,5.76,0,0,1-4.67,2.38H11.94a2.14,2.14,0,0,1-2-1.41,8,8,0,0,1-1.09-.43,7.33,7.33,0,0,1-2-1.5A8.66,8.66,0,0,0,0,24.65v.54a1.35,1.35,0,0,0,1.35,1.35H22.27a1.36,1.36,0,0,0,1.35-1.35v-.54A8.68,8.68,0,0,0,19.3,17.15Z" style="fill:#fff"/><path id="Path_15823" data-name="Path 15823" d="M5.37,13.4a1.51,1.51,0,0,0,1.34-.8l0,.06v0a6,6,0,0,0,3.38,3.55,2.15,2.15,0,0,1,1.82-1h2.69a1.46,1.46,0,0,0,.73-.2,3.09,3.09,0,0,0,.87-1,7.66,7.66,0,0,0,.67-1.42,1.52,1.52,0,0,0,.43.48v.66a2.71,2.71,0,0,1-2.7,2.7H11.94a.93.93,0,0,0,0,1.85h2.69a4.56,4.56,0,0,0,4.54-4.55v-.66a1.49,1.49,0,0,0,.61-1.23V8a1.5,1.5,0,0,0-.63-1.25,7.36,7.36,0,0,0-14.68,0A1.54,1.54,0,0,0,3.83,8v3.84A1.53,1.53,0,0,0,5.37,13.4ZM11.81,1.85a5.53,5.53,0,0,1,5.5,5,1.46,1.46,0,0,0-.43.53,5.26,5.26,0,0,0-10.13,0h0a1.57,1.57,0,0,0-.43-.53A5.52,5.52,0,0,1,11.81,1.85Z" style="fill:#fff"/></g></g></g></svg>