<svg xmlns="http://www.w3.org/2000/svg" xmlns:xlink="http://www.w3.org/1999/xlink" width="114.168" height="164.116" viewBox="0 0 114.168 164.116">
  <defs>
    <linearGradient id="linear-gradient" x1="0.5" x2="0.5" y2="1" gradientUnits="objectBoundingBox">
      <stop offset="0" stop-color="#54a5ff"/>
      <stop offset="1" stop-color="#8ad3fe"/>
    </linearGradient>
  </defs>
  <g id="Group_3136" data-name="Group 3136" transform="translate(-1384 -359.799)">
    <g id="Group_3135" data-name="Group 3135" transform="translate(-20)">
      <g id="Wrong_password" data-name="Wrong password" transform="translate(1399 358.799)">
        <path id="Path_15835" data-name="Path 15835" d="M88.49,40.245v32.11H74.219V40.245a24.974,24.974,0,1,0-49.948,0v32.11H10V40.245a39.245,39.245,0,1,1,78.49,0Z" transform="translate(12.839 0)" fill="#edefef"/>
        <path id="Path_15836" data-name="Path 15836" d="M83.355,40.117v32.11H69.084V40.117a24.974,24.974,0,1,0-49.948,0c0,34.143-.357,32.11,0,32.11A7.135,7.135,0,0,1,12,65.091V40.117A39.245,39.245,0,0,1,47.677,1.05,39.245,39.245,0,0,1,83.355,40.117Z" transform="translate(17.974 0.128)" fill="#fff"/>
        <path id="Path_15837" data-name="Path 15837" d="M97.761,78.084A21.406,21.406,0,0,0,119.168,99.49v7.135a7.135,7.135,0,0,1-7.135,7.135h-99.9A7.135,7.135,0,0,1,5,106.626V28.135A7.135,7.135,0,0,1,12.135,21h99.9a7.135,7.135,0,0,1,7.135,7.135V56.677A21.406,21.406,0,0,0,97.761,78.084Z" transform="translate(0 51.355)" fill="#fff"/>
        <path id="Path_15839" data-name="Path 15839" d="M111.464,48.135v7.135H22.271A14.271,14.271,0,0,1,8,41H95.552a21.406,21.406,0,0,0,15.912,7.135Z" transform="translate(7.703 102.709)" fill="#fff"/>
        <path id="Path_15840" data-name="Path 15840" d="M119.168,27V41.271a21.406,21.406,0,0,0-15.912,35.677H5V27Z" transform="translate(0 66.761)" fill="#fff"/>
        <path id="Path_15841" data-name="Path 15841" d="M111.464,27V41.271A21.406,21.406,0,0,0,95.552,76.948H8V27Z" transform="translate(7.703 66.761)" fill="#fff"/>
      </g>
      <rect id="Rectangle_2189" data-name="Rectangle 2189" width="60" height="60" transform="translate(1458 455)" fill="#fff"/>
      <g id="Group_3133" data-name="Group 3133">
        <path id="Union_2" data-name="Union 2" d="M9947.3,16553.176v-4.492c-4.948,2.855-4.846,2.711-5.709,2.711a3.569,3.569,0,0,1-1.782-6.674l3.894-2.246q-1.8-1.043-3.894-2.25a3.58,3.58,0,0,1,3.569-6.207l3.922,2.262v-4.51a3.569,3.569,0,1,1,7.139,0v4.51l3.923-2.262a3.58,3.58,0,0,1,3.569,6.207l-3.9,2.248,3.9,2.248a3.569,3.569,0,0,1-1.787,6.674c-.86,0-.77.145-5.705-2.7v4.482a3.569,3.569,0,0,1-7.139,0Z" transform="translate(-8523.949 -16064.941)" fill="url(#linear-gradient)"/>
        <path id="Union_5" data-name="Union 5" d="M9947.3,16553.176v-4.492c-4.948,2.855-4.846,2.711-5.709,2.711a3.569,3.569,0,0,1-1.782-6.674l3.894-2.246c-1.2-.7-2.5-1.443-3.894-2.25a3.58,3.58,0,1,1,3.569-6.207l3.922,2.262v-4.51a3.567,3.567,0,1,1,7.135,0v4.514l3.927-2.266a3.58,3.58,0,0,1,3.569,6.207l-3.9,2.248,3.9,2.248a3.569,3.569,0,0,1-1.787,6.674c-.86,0-.772.143-5.709-2.7v4.484a3.567,3.567,0,0,1-7.135,0Z" transform="translate(-8488.273 -16064.941)" fill="url(#linear-gradient)"/>
        <path id="Union_6" data-name="Union 6" d="M9947.3,16553.176v-4.492c-4.948,2.855-4.846,2.711-5.709,2.711a3.569,3.569,0,0,1-1.782-6.674l3.894-2.246c-1.2-.7-2.5-1.443-3.894-2.25a3.58,3.58,0,1,1,3.569-6.207l3.922,2.262v-4.51a3.567,3.567,0,1,1,7.135,0v4.514l3.927-2.266a3.58,3.58,0,0,1,3.569,6.207l-3.9,2.248,3.9,2.248a3.569,3.569,0,0,1-1.787,6.674c-.86,0-.772.143-5.709-2.7v4.484a3.567,3.567,0,0,1-7.135,0Z" transform="translate(-8455.623 -16064.941)" fill="url(#linear-gradient)"/>
      </g>
    </g>
  </g>
</svg>
