<svg xmlns="http://www.w3.org/2000/svg" width="157.225" height="31.421" viewBox="0 0 157.225 31.421"><defs><style>.a{fill:#0abeff;}.b,.c{isolation:isolate;}.c{fill:#fff;font-size:1px;font-family:ArialMT, Arial;}</style></defs><g transform="translate(0 0)"><g transform="translate(0 3.26)"><path class="a" d="M80.59,29.228c-5.045,0-9.074-3.637-9.074-9.5,0-5.514,3.439-9.5,9.074-9.5a9.137,9.137,0,0,1,6.453,2.66l3.208-3.207A13.468,13.468,0,0,0,80.59,5.645c-8.018,0-13.728,5.826-13.728,14.08,0,8.6,6.177,14.08,13.728,14.08a13.6,13.6,0,0,0,9.661-3.99l-3.208-3.246A9.137,9.137,0,0,1,80.59,29.228ZM116.455,6.035h-5.71L99.519,19.842V6.035H94.941V33.411h4.576V25.9l2.581-2.894,8.448,10.4h5.984l-11.379-13.45,11.3-13.924Zm14.432,0h-9.113v4.576l4.341,6.845h-4.341V33.413h4.576V21.993h4.537s9.112,0,9.112-7.979S130.886,6.035,130.886,6.035Zm.586,11.381-4.264-6.805h3.677s4.576,0,4.576,3.4C135.462,16.673,132.685,17.26,131.473,17.416Zm13.219,16h4.577V6.037h-4.577ZM170.818,6.037H154.782v4.185h5.75V33.413h4.537V10.22h5.751V6.037Z" transform="translate(-19.929 -5.644)"/><path d="M43.823,25.982A10.169,10.169,0,1,0,33.654,15.813h0A10.2,10.2,0,0,0,43.823,25.982Zm0-15.8a5.632,5.632,0,1,1-5.632,5.632h0a5.608,5.608,0,0,1,5.585-5.632Zm8.915,18.7H34.671v4.537h18.07V28.876Z" transform="translate(-10.031 -5.644)"/><path class="a" d="M21.511,6.2H15.8L4.577,20.008V6.2H0V33.577H4.577V26.067l2.582-2.894,8.448,10.4h5.984L10.207,20.126,21.509,6.2Z" transform="translate(0 -5.81)"/></g><g class="b" transform="translate(155.225)"><text class="c" transform="translate(0 1)"><tspan x="0" y="0">TM</tspan></text></g></g></svg>