<svg xmlns="http://www.w3.org/2000/svg" width="19.34" height="19.481" viewBox="0 0 19.34 19.481"><defs><style>.a{fill:#6e768e;stroke:#6e768e;stroke-width:0.5px;}</style></defs><g transform="translate(0.251 0.25)"><path class="a" d="M5.176,11.871a3.963,3.963,0,0,1-2.833-1.505A7.631,7.631,0,0,1,.932,8.025l-.066-.04a.787.787,0,0,1-.311-.268,2.6,2.6,0,0,1-.429-2.3,1.168,1.168,0,0,1,.481-.526A8.187,8.187,0,0,1,.844,2.9,4.29,4.29,0,0,1,5.176,0,4.55,4.55,0,0,1,8.654,1.439,4.091,4.091,0,0,1,9.507,2.9a8.112,8.112,0,0,1,.236,1.993,1.169,1.169,0,0,1,.481.526,2.6,2.6,0,0,1-.43,2.3.779.779,0,0,1-.307.264l0,0-.066.041a7.652,7.652,0,0,1-1.412,2.342A3.962,3.962,0,0,1,5.176,11.871Zm0-11.047A3.782,3.782,0,0,0,2.329,1.96,3.178,3.178,0,0,0,1.64,3.113a7.508,7.508,0,0,0-.2,2.022v.005a.411.411,0,0,1-.337.428.374.374,0,0,0-.232.208c-.058.134-.139.546.367,1.466l.035.022.031.019c.192.119.33.2.382.385.206.715,1.6,3.377,3.491,3.377S8.46,8.386,8.667,7.671c.052-.181.19-.267.382-.387l.031-.019.035-.022c.507-.921.425-1.332.366-1.466a.374.374,0,0,0-.241-.21.424.424,0,0,1-.327-.426,7.6,7.6,0,0,0-.2-2.03,3.111,3.111,0,0,0-.7-1.177A3.747,3.747,0,0,0,5.176.824Z" transform="translate(4.086 0)"/><path class="a" d="M1.362,1.584a.414.414,0,0,1-.19-.046A2.533,2.533,0,0,1,.046.6.412.412,0,0,1,.774.213a2.047,2.047,0,0,0,.779.593.412.412,0,0,1-.191.778" transform="translate(10.875 10.417)"/><path class="a" d="M9.477,8.564a57.528,57.528,0,0,1-9.139-.8A.413.413,0,0,1,0,7.342,6.012,6.012,0,0,1,4.67,1.356,6.049,6.049,0,0,0,6.945.119.412.412,0,1,1,7.526.7,6.833,6.833,0,0,1,4.918,2.142,5.105,5.105,0,0,0,.849,7.018a55.658,55.658,0,0,0,9.728.707.412.412,0,1,1,.024.824q-.564.016-1.124.016" transform="translate(0 10.417)"/><path class="a" d="M5.775,6.18H.825A.825.825,0,0,1,0,5.356V.824A.825.825,0,0,1,.825,0h4.95A.826.826,0,0,1,6.6.824V5.356A.826.826,0,0,1,5.775,6.18ZM.825.824V5.356H5.776V.824Z" transform="translate(12.239 12.786)"/><path class="a" d="M5.363.824H.413A.412.412,0,1,1,.413,0h4.95a.412.412,0,1,1,0,.824" transform="translate(12.651 14.846)"/><path class="a" d="M.413,2.472A.412.412,0,0,1,0,2.06V.412a.413.413,0,0,1,.825,0V2.06a.412.412,0,0,1-.413.412" transform="translate(13.889 11.962)"/><path class="a" d="M.413,2.472A.412.412,0,0,1,0,2.06V.412a.413.413,0,0,1,.825,0V2.06a.412.412,0,0,1-.413.412" transform="translate(16.364 11.962)"/></g></svg>