<svg xmlns="http://www.w3.org/2000/svg" width="752" height="537" viewBox="0 0 752 537">
  <g id="Group_3124" data-name="Group 3124" transform="translate(-1065 -180)">
    <g id="Group_3120" data-name="Group 3120" transform="translate(811 -962.238)">
      <rect id="Rectangle_2147" data-name="Rectangle 2147" width="752" height="537" transform="translate(254 1142.238)" fill="#3aa0ff"/>
      <circle id="Ellipse_60" data-name="Ellipse 60" cx="57" cy="57" r="57" transform="translate(269 1516.238)" fill="#fff"/>
      <circle id="Ellipse_61" data-name="Ellipse 61" cx="30.5" cy="30.5" r="30.5" transform="translate(902 1218.238)" fill="#fff"/>
      <rect id="_1_1" data-name="1 1" width="609.751" height="479.033" rx="10" transform="translate(325 1171.238)" fill="#3aa0ff"/>
    </g>
    <path id="Union_1" data-name="Union 1" d="M-4405.55-19.1a4.451,4.451,0,0,1-4.45-4.45V-129.2h37.353a4.452,4.452,0,0,0,4.451-4.45V-171h65.449a4.452,4.452,0,0,1,4.451,4.45V-148.6h-11.969a13.335,13.335,0,0,0-11.8,7.088,13.325,13.325,0,0,0-3.873-.579,13.244,13.244,0,0,0-9.464,3.938L-4346-127.5a13.348,13.348,0,0,0-3.344,13.211,13.338,13.338,0,0,0-6.953,11.725V-87.53a13.338,13.338,0,0,0,7.08,11.794,13.326,13.326,0,0,0,3.368,13.339l10.65,10.607a13.268,13.268,0,0,0,9.42,3.889,13.37,13.37,0,0,0,3.79-.551,13.338,13.338,0,0,0,11.727,6.957h11.969v17.95a4.452,4.452,0,0,1-4.451,4.45Zm4.623-25.547a4.45,4.45,0,0,0,4.449,4.45h27a4.45,4.45,0,0,0,4.45-4.45,4.451,4.451,0,0,0-4.45-4.45h-27A4.451,4.451,0,0,0-4400.927-44.642Zm0-17.8a4.45,4.45,0,0,0,4.449,4.45h27a4.45,4.45,0,0,0,4.45-4.45,4.452,4.452,0,0,0-4.45-4.451h-27A4.452,4.452,0,0,0-4400.927-62.444Zm0-17.8a4.449,4.449,0,0,0,4.449,4.45h27a4.449,4.449,0,0,0,4.45-4.45,4.452,4.452,0,0,0-4.45-4.45h-27A4.452,4.452,0,0,0-4400.927-80.246Zm0-17.8a4.45,4.45,0,0,0,4.449,4.45h27a4.45,4.45,0,0,0,4.45-4.45,4.452,4.452,0,0,0-4.45-4.45h-27A4.452,4.452,0,0,0-4400.927-98.047Zm0-17.8a4.45,4.45,0,0,0,4.449,4.45h27a4.45,4.45,0,0,0,4.45-4.45,4.451,4.451,0,0,0-4.45-4.45h-27A4.451,4.451,0,0,0-4400.927-115.848Zm90.662,65.453a4.451,4.451,0,0,1-4.424-3.961l-1.029-9.277-7.274,5.85a4.451,4.451,0,0,1-5.928-.314l-10.657-10.609a4.451,4.451,0,0,1-.341-5.928l5.916-7.424-9.434-1.047a4.451,4.451,0,0,1-3.961-4.424v-15.035a4.45,4.45,0,0,1,3.961-4.424l9.277-1.03-5.85-7.275a4.45,4.45,0,0,1,.314-5.928l10.609-10.657a4.452,4.452,0,0,1,5.928-.341l7.423,5.916,1.047-9.434a4.45,4.45,0,0,1,4.424-3.961h15.037a4.449,4.449,0,0,1,4.424,3.961l1.029,9.277,7.274-5.85a4.451,4.451,0,0,1,5.928.314l10.657,10.609a4.452,4.452,0,0,1,.342,5.928l-5.917,7.423,9.435,1.048a4.452,4.452,0,0,1,3.961,4.424V-87.53a4.452,4.452,0,0,1-3.961,4.424l-9.277,1.029,5.851,7.275a4.452,4.452,0,0,1-.314,5.928l-10.609,10.658a4.455,4.455,0,0,1-5.929.341l-7.423-5.916-1.047,9.434a4.45,4.45,0,0,1-4.424,3.961Zm-9.211-44.652a16.75,16.75,0,0,0,16.729,16.731,16.751,16.751,0,0,0,16.731-16.731,16.75,16.75,0,0,0-16.731-16.73A16.75,16.75,0,0,0-4319.477-95.048Z" transform="translate(5775 544)" fill="#fff" opacity="0.5"/>
  </g>
</svg>
