<svg xmlns="http://www.w3.org/2000/svg" xmlns:xlink="http://www.w3.org/1999/xlink" width="30.056" height="34.298" viewBox="0 0 30.056 34.298">
  <defs>
    <linearGradient id="linear-gradient" x1="-0.108" y1="1.057" x2="1" y2="-0.133" gradientUnits="objectBoundingBox">
      <stop offset="0" stop-color="#fff"/>
      <stop offset="1" stop-color="#3aa0ff"/>
    </linearGradient>
  </defs>
  <g id="Group_7017" data-name="Group 7017" transform="translate(0 0)">
    <path id="Path_1" data-name="Path 1" d="M95.966,21.816a3.814,3.814,0,0,1-1.111,2.691L84.183,35.18l-.318.318a22.732,22.732,0,0,0-1.748,1.748c-1.381,1.544-2.895,3.724-1.748,4.871l-4.06-4.054-.2-.2A3.838,3.838,0,0,1,75,35.306V35.1a3.826,3.826,0,0,1,1.111-2.6l.2-.2L89.48,19.126a3.784,3.784,0,0,1,6.486,2.691Z" transform="translate(-65.911 -18)" fill="url(#linear-gradient)"/>
    <path id="Path_2" data-name="Path 2" d="M130.9,175.967a3.817,3.817,0,0,1-5.4,0l-9.092-9.057c-1.147-1.143.366-3.314,1.747-4.852a22.712,22.712,0,0,1,1.748-1.741l.318-.317,10.672,10.631a3.783,3.783,0,0,1,.012,5.336Z" transform="translate(-101.942 -142.791)" fill="#fff"/>
    <path id="Path_3" data-name="Path 3" d="M3.454,140.908A3.454,3.454,0,1,0,0,137.454,3.454,3.454,0,0,0,3.454,140.908Z" transform="translate(0 -119.942)" fill="#fff"/>
  </g>
</svg>
