<svg xmlns="http://www.w3.org/2000/svg" width="22.453" height="20.4" viewBox="0 0 22.453 20.4"><defs><style>.a{fill:#6e768e;stroke:#6e768e;stroke-miterlimit:10;stroke-width:0.5px;}</style></defs><g transform="translate(0.251 0.25)"><path class="a" d="M7.084,17.729a.475.475,0,0,1-.467-.375.469.469,0,0,1,.372-.553,6.677,6.677,0,0,0,3.969-2.389A6.629,6.629,0,0,0,7.7,11.757c-1.853-.628-2.251-.867-2.251-1.984a.47.47,0,0,1,.342-.45,4.335,4.335,0,0,1,1.117-.092c.651,0,1.46-.008,1.725-.355.224-.295.13-.505-.338-1.211-.114-.173-.235-.356-.351-.552A6.09,6.09,0,0,1,6.9,4.121l-.015-.154A3.014,3.014,0,0,0,3.857.94,2.927,2.927,0,0,0,.941,3.312a.477.477,0,0,1-.574.348A.469.469,0,0,1,.013,3.1,3.889,3.889,0,0,1,3.825,0h.064a3.952,3.952,0,0,1,3.943,3.87l.016.158a5.206,5.206,0,0,0,.924,2.612c.107.182.219.35.325.51.446.673.952,1.435.3,2.287-.549.72-1.62.726-2.482.731-.151,0-.3,0-.443.007.126.2.491.338,1.54.694a7.529,7.529,0,0,1,3.947,3.378.464.464,0,0,1-.061.52l-.072.084A7.746,7.746,0,0,1,7.18,17.719a.487.487,0,0,1-.1.01" transform="translate(9.926 0)"/><path class="a" d="M8.655,7.986A43.626,43.626,0,0,1,.377,7.257.471.471,0,0,1,0,6.776,5.583,5.583,0,0,1,4.383,1.239,5.617,5.617,0,0,0,6.449.134a.482.482,0,0,1,.674.007.463.463,0,0,1,0,.662A6.446,6.446,0,0,1,4.67,2.134,4.581,4.581,0,0,0,.984,6.416a45.547,45.547,0,0,0,7.672.632,45.547,45.547,0,0,0,7.672-.632,4.581,4.581,0,0,0-3.686-4.281A6.455,6.455,0,0,1,10.192.8a.465.465,0,0,1,0-.664.483.483,0,0,1,.673,0,5.628,5.628,0,0,0,2.066,1.1A5.582,5.582,0,0,1,17.31,6.776a.471.471,0,0,1-.376.481,43.632,43.632,0,0,1-8.279.729" transform="translate(0 11.914)"/><path class="a" d="M4.879,11a3.631,3.631,0,0,1-2.74-1.448A7.474,7.474,0,0,1,.881,7.465l0,0L.846,7.443a.808.808,0,0,1-.32-.276,2.418,2.418,0,0,1-.4-2.18A1.17,1.17,0,0,1,.562,4.5,7.272,7.272,0,0,1,.783,2.711,4.06,4.06,0,0,1,4.879,0a4.056,4.056,0,0,1,4.1,2.709A7.344,7.344,0,0,1,9.2,4.5a1.171,1.171,0,0,1,.436.492,2.415,2.415,0,0,1-.4,2.18.791.791,0,0,1-.317.274l-.036.023A7.511,7.511,0,0,1,7.619,9.549,3.63,3.63,0,0,1,4.879,11Zm0-10.059a3.354,3.354,0,0,0-2.558,1A2.778,2.778,0,0,0,1.7,2.953,6.672,6.672,0,0,0,1.52,4.765v0a.472.472,0,0,1-.389.487.252.252,0,0,0-.145.137c-.036.084-.12.422.324,1.229l.014.008.025.015c.181.111.338.207.4.407.186.636,1.444,3.005,3.134,3.005S7.826,7.689,8.013,7.053c.059-.2.215-.3.4-.406l.038-.023c.456-.823.361-1.156.321-1.239a.253.253,0,0,0-.141-.127.473.473,0,0,1-.39-.487,6.618,6.618,0,0,0-.184-1.819A3.1,3.1,0,0,0,4.879.939Z" transform="translate(3.776 2.429)"/></g></svg>