<svg xmlns="http://www.w3.org/2000/svg" width="20.122" height="20.122" viewBox="0 0 20.122 20.122"><defs><style>.a{fill:#6e768e;stroke:#6e768e;stroke-width:0.5px;}</style></defs><g transform="translate(0.25 0.25)"><path class="a" d="M10.379,19.622H9.243a1.28,1.28,0,0,1-1.259-1.051l-.165-.906a8.028,8.028,0,0,1-2.151-.894l-.759.526a1.264,1.264,0,0,1-.722.22,1.293,1.293,0,0,1-.911-.368l-.8-.8a1.278,1.278,0,0,1-.148-1.633l.526-.759A8.041,8.041,0,0,1,1.956,11.8l-.906-.165A1.28,1.28,0,0,1,0,10.379V9.243A1.277,1.277,0,0,1,1.051,7.985l.906-.165a8.041,8.041,0,0,1,.894-2.152l-.526-.759a1.28,1.28,0,0,1,.148-1.634l.8-.8A1.293,1.293,0,0,1,4.187,2.1a1.264,1.264,0,0,1,.722.22l.759.527A8.01,8.01,0,0,1,7.82,1.956l.165-.906A1.28,1.28,0,0,1,9.243,0h1.136a1.28,1.28,0,0,1,1.259,1.051l.165.906a8.023,8.023,0,0,1,2.152.895l.759-.527a1.264,1.264,0,0,1,.722-.22,1.291,1.291,0,0,1,.911.368l.8.8A1.279,1.279,0,0,1,17.3,4.909l-.526.759a8.041,8.041,0,0,1,.894,2.152l.906.165a1.279,1.279,0,0,1,1.051,1.259v1.136a1.28,1.28,0,0,1-1.051,1.259l-.906.165a8.041,8.041,0,0,1-.894,2.152l.526.759a1.277,1.277,0,0,1-.147,1.633l-.8.8a1.278,1.278,0,0,1-1.633.148l-.759-.526a8.03,8.03,0,0,1-2.152.894l-.165.906A1.28,1.28,0,0,1,10.379,19.622ZM5.656,15.835a.423.423,0,0,1,.231.068,7.2,7.2,0,0,0,2.393.995.425.425,0,0,1,.33.341l.214,1.181a.427.427,0,0,0,.419.35h1.136a.427.427,0,0,0,.419-.35l.214-1.181a.425.425,0,0,1,.33-.341,7.2,7.2,0,0,0,2.393-.995.425.425,0,0,1,.474.008l.99.686a.422.422,0,0,0,.24.073.432.432,0,0,0,.3-.122l.8-.8A.425.425,0,0,0,16.6,15.2l-.686-.99a.426.426,0,0,1-.008-.474,7.192,7.192,0,0,0,.995-2.392.426.426,0,0,1,.341-.33l1.181-.214a.427.427,0,0,0,.35-.419V9.243a.427.427,0,0,0-.35-.42l-1.181-.214a.426.426,0,0,1-.341-.33A7.192,7.192,0,0,0,15.9,5.886a.427.427,0,0,1,.008-.474l.686-.99a.425.425,0,0,0-.049-.544l-.8-.8a.434.434,0,0,0-.3-.122.417.417,0,0,0-.24.074l-.99.685a.426.426,0,0,1-.474.008,7.187,7.187,0,0,0-2.393-.995.425.425,0,0,1-.33-.341L10.8,1.2a.427.427,0,0,0-.419-.35H9.243a.427.427,0,0,0-.419.351l-.214,1.18a.425.425,0,0,1-.33.341,7.19,7.19,0,0,0-2.393.995.425.425,0,0,1-.474-.008l-.99-.685a.419.419,0,0,0-.241-.074.432.432,0,0,0-.3.122l-.8.8a.426.426,0,0,0-.049.544l.685.99a.425.425,0,0,1,.008.474,7.218,7.218,0,0,0-.995,2.392.425.425,0,0,1-.34.33L1.2,8.824a.426.426,0,0,0-.35.419v1.136a.427.427,0,0,0,.35.419l1.181.214a.425.425,0,0,1,.34.33,7.218,7.218,0,0,0,.995,2.392.424.424,0,0,1-.008.474l-.685.99a.426.426,0,0,0,.049.544l.8.8a.433.433,0,0,0,.3.122.424.424,0,0,0,.241-.073l.99-.686A.43.43,0,0,1,5.656,15.835Z" transform="translate(0 0)"/><path class="a" d="M3.839,7.678A3.839,3.839,0,1,1,7.678,3.839,3.844,3.844,0,0,1,3.839,7.678Zm0-6.825A2.986,2.986,0,1,0,6.825,3.839,2.989,2.989,0,0,0,3.839.853Z" transform="translate(5.972 5.972)"/></g></svg>