<svg id="document_1_" data-name="document (1)" xmlns="http://www.w3.org/2000/svg" width="151.905" height="151.905" viewBox="0 0 151.905 151.905">
  <path id="Path_15825" data-name="Path 15825" d="M32.9,0a4.467,4.467,0,0,0-3.148,1.3L1.383,29.678A4.5,4.5,0,0,0,0,32.9H32.9Z" transform="translate(0)" fill="#fff"/>
  <path id="Path_15826" data-name="Path 15826" d="M88.007,122.548A13.333,13.333,0,0,1,74.8,119.21L64.147,108.6A13.329,13.329,0,0,1,60.78,95.264,13.338,13.338,0,0,1,53.7,83.471V68.434a13.338,13.338,0,0,1,6.951-11.725A13.35,13.35,0,0,1,64,43.5L74.6,32.847a13.318,13.318,0,0,1,13.336-3.359,13.335,13.335,0,0,1,11.8-7.088H111.7V4.45A4.452,4.452,0,0,0,107.253,0H41.8V37.35a4.452,4.452,0,0,1-4.45,4.45H0V147.455a4.452,4.452,0,0,0,4.45,4.45h102.8a4.452,4.452,0,0,0,4.45-4.45v-17.95H99.735A13.338,13.338,0,0,1,88.007,122.548Zm-47.485,8.26h-27a4.45,4.45,0,1,1,0-8.9h27a4.45,4.45,0,1,1,0,8.9Zm0-17.8h-27a4.45,4.45,0,1,1,0-8.9h27a4.45,4.45,0,1,1,0,8.9Zm0-17.8h-27a4.45,4.45,0,1,1,0-8.9h27a4.45,4.45,0,1,1,0,8.9Zm0-17.8h-27a4.45,4.45,0,0,1,0-8.9h27a4.45,4.45,0,0,1,0,8.9Zm0-17.8h-27a4.45,4.45,0,1,1,0-8.9h27a4.45,4.45,0,1,1,0,8.9Z" transform="translate(0)" fill="#fff"/>
  <path id="Path_15827" data-name="Path 15827" d="M296.343,138.21l-9.435-1.047,5.916-7.423a4.452,4.452,0,0,0-.341-5.928L281.826,113.2a4.451,4.451,0,0,0-5.928-.314l-7.275,5.851-1.03-9.277a4.449,4.449,0,0,0-4.424-3.961H248.134a4.449,4.449,0,0,0-4.424,3.961l-1.047,9.435-7.423-5.916a4.452,4.452,0,0,0-5.928.341L218.7,123.978a4.451,4.451,0,0,0-.314,5.928l5.851,7.275-9.278,1.029A4.452,4.452,0,0,0,211,142.634V157.67a4.451,4.451,0,0,0,3.961,4.424l9.435,1.047-5.916,7.423a4.452,4.452,0,0,0,.341,5.928l10.657,10.61a4.45,4.45,0,0,0,5.928.314l7.275-5.851,1.029,9.278a4.449,4.449,0,0,0,4.424,3.961H263.17a4.449,4.449,0,0,0,4.424-3.961l1.047-9.435,7.423,5.916a4.452,4.452,0,0,0,5.928-.341l10.61-10.657a4.451,4.451,0,0,0,.314-5.928l-5.851-7.275,9.277-1.029a4.452,4.452,0,0,0,3.961-4.424V142.634A4.452,4.452,0,0,0,296.343,138.21Zm-40.691,28.672a16.73,16.73,0,1,1,16.73-16.73A16.751,16.751,0,0,1,255.652,166.882Z" transform="translate(-148.398 -74.199)" fill="#fff"/>
</svg>
